<?xml version="1.0" encoding="UTF-8" standalone="no"?>
<!-- Created with Inkscape (http://www.inkscape.org/) -->

<svg
   width="512mm"
   height="512mm"
   viewBox="0 0 512 512"
   version="1.1"
   id="svg1"
   xml:space="preserve"
   inkscape:version="1.4.2 (ebf0e940d0, 2025-05-08)"
   sodipodi:docname="logov1.0.svg"
   xmlns:inkscape="http://www.inkscape.org/namespaces/inkscape"
   xmlns:sodipodi="http://sodipodi.sourceforge.net/DTD/sodipodi-0.dtd"
   xmlns="http://www.w3.org/2000/svg"
   xmlns:svg="http://www.w3.org/2000/svg"><sodipodi:namedview
     id="namedview1"
     pagecolor="#505050"
     bordercolor="#eeeeee"
     borderopacity="1"
     inkscape:showpageshadow="0"
     inkscape:pageopacity="0"
     inkscape:pagecheckerboard="0"
     inkscape:deskcolor="#505050"
     inkscape:document-units="mm"
     inkscape:zoom="0.19153339"
     inkscape:cx="1101.6356"
     inkscape:cy="971.11005"
     inkscape:window-width="1908"
     inkscape:window-height="1026"
     inkscape:window-x="5"
     inkscape:window-y="47"
     inkscape:window-maximized="1"
     inkscape:current-layer="layer2"
     showguides="false" /><defs
     id="defs1" /><g
     inkscape:groupmode="layer"
     id="layer2"
     inkscape:label="BACK"
     style="display:inline"><rect
       style="fill:#1f1f1f;stroke-width:0.396875;stroke-linecap:round;stroke-linejoin:round;fill-opacity:1"
       id="rect1"
       width="512"
       height="512"
       x="0"
       y="0"
       inkscape:label="BACK" /></g><g
     inkscape:groupmode="layer"
     id="layer3"
     inkscape:label="LINEART"
     transform="matrix(1.6620257,0,0,1.6620257,-151.93984,-49.964839)"><g
       id="g15"
       inkscape:label="document"><path
         style="fill:none;fill-opacity:1;stroke:#f9f9f9;stroke-width:8.46667;stroke-linecap:round;stroke-linejoin:round;stroke-dasharray:none;stroke-opacity:1"
         d="M 330.15637,132.35559 H 254.21064"
         id="path14" /><path
         style="fill:none;fill-opacity:1;stroke:#f9f9f9;stroke-width:8.46667;stroke-linecap:round;stroke-linejoin:round;stroke-dasharray:none;stroke-opacity:1"
         d="M 331.13318,173.13674 H 293.03821"
         id="path15" /><path
         d="m 178.71829,181.92332 v 112.31402 c 0,18.64884 12.43232,18.64847 12.43232,18.64847 h 130.02358 c 5.95631,0 24.83323,-7.03382 32.78929,-19.70734 m 7.21385,-14.29382 c 1.55217,-4.07949 2.08561,-4.87699 2.14468,-8.82206 V 99.558781 c 0,-22.004035 -15.21044,-26.344645 -15.21044,-26.344645 0,0 -130.54167,-0.690697 -142.97422,0 -10.55928,0.586628 -21.47981,16.511091 -24.54729,24.087752 L 178.68,102.39497"
         style="display:inline;fill:none;stroke:#f9f9f9;stroke-width:8.46667;stroke-linecap:round;stroke-linejoin:round;stroke-opacity:1"
         id="path12"
         sodipodi:nodetypes="cscscccscscc"
         inkscape:label="document" /></g><g
       id="g11"
       inkscape:label="syringe"><path
         style="fill:none;fill-opacity:1;stroke:#f9f9f9;stroke-width:8.46667;stroke-linecap:round;stroke-linejoin:round;stroke-dasharray:none;stroke-opacity:1"
         d="m 97.191003,50.79329 77.655127,71.79436"
         id="path4"
         sodipodi:nodetypes="cc" /><path
         style="fill:none;fill-opacity:1;stroke:#f9f9f9;stroke-width:8.46667;stroke-linecap:round;stroke-linejoin:round;stroke-dasharray:none;stroke-opacity:1"
         d="M 171.91575,75.701534 130.8904,120.63406"
         id="path5"
         sodipodi:nodetypes="cc" /><path
         style="fill:none;fill-opacity:1;stroke:#f9f9f9;stroke-width:8.46667;stroke-linecap:round;stroke-linejoin:round;stroke-dasharray:none;stroke-opacity:1"
         d="m 154.82185,143.10032 42.49054,-42.97893 c 0,0 76.29606,70.80706 116.23849,110.86612 4.30848,5.2288 4.39557,13.67511 -11.23313,28.81542 -15.62872,15.14031 -22.46627,18.07069 -32.7226,10.25634 -10.25634,-7.81436 -114.7733,-106.95895 -114.7733,-106.95895 z"
         id="path6"
         sodipodi:nodetypes="cccssc" /><path
         style="fill:none;fill-opacity:1;stroke:#f9f9f9;stroke-width:8.46667;stroke-linecap:round;stroke-linejoin:round;stroke-dasharray:none;stroke-opacity:1"
         d="m 312.19534,232.41977 c 0,0 17.61279,11.56918 8.97909,20.54825 -8.63372,8.97907 -22.62037,-8.97907 -22.62037,-8.97907"
         id="path7"
         sodipodi:nodetypes="csc" /><path
         style="fill:none;fill-opacity:1;stroke:#f9f9f9;stroke-width:8.46667;stroke-linecap:round;stroke-linejoin:round;stroke-dasharray:none;stroke-opacity:1"
         d="m 221.24384,139.68154 -18.07069,19.53588 77.89933,73.01535"
         id="path9" /><path
         style="fill:none;fill-opacity:1;stroke:#f9f9f9;stroke-width:8.46667;stroke-linecap:round;stroke-linejoin:round;stroke-dasharray:none;stroke-opacity:1"
         d="m 220.02285,172.89254 16.8497,-17.09389"
         id="path10" /><path
         style="fill:none;fill-opacity:1;stroke:#f9f9f9;stroke-width:8.46667;stroke-linecap:round;stroke-linejoin:round;stroke-dasharray:none;stroke-opacity:1"
         d="m 269.10675,185.59086 -17.58229,16.6055"
         id="path11" /></g><path
       style="fill:#f9f9f9;fill-opacity:1;stroke:none;stroke-width:8.46667;stroke-linecap:round;stroke-linejoin:round;stroke-dasharray:none;stroke-opacity:1"
       d="m 397.12957,320.00885 c 0,0 2.46061,3.00024 -1.20873,0.82021 -3.36714,-1.38139 -59.85633,-52.28458 -59.85633,-52.28458 l -18.25725,-10.22355 8.6337,-8.8064 12.3419,17.04854 z"
       id="path8"
       sodipodi:nodetypes="ccccccc"
       inkscape:label="needle" /></g></svg>
