<?xml version="1.0" encoding="UTF-8" standalone="no"?>
<!-- Created with Inkscape (http://www.inkscape.org/) -->

<svg
   width="512mm"
   height="512mm"
   viewBox="0 0 512 512"
   version="1.1"
   id="svg1"
   xml:space="preserve"
   inkscape:version="1.4.2 (ebf0e940d0, 2025-05-08)"
   sodipodi:docname="logonobgv1.1.svg"
   inkscape:export-filename="logonobgv1.1.png"
   inkscape:export-xdpi="96"
   inkscape:export-ydpi="96"
   xmlns:inkscape="http://www.inkscape.org/namespaces/inkscape"
   xmlns:sodipodi="http://sodipodi.sourceforge.net/DTD/sodipodi-0.dtd"
   xmlns:xlink="http://www.w3.org/1999/xlink"
   xmlns="http://www.w3.org/2000/svg"
   xmlns:svg="http://www.w3.org/2000/svg"><sodipodi:namedview
     id="namedview1"
     pagecolor="#505050"
     bordercolor="#eeeeee"
     borderopacity="1"
     inkscape:showpageshadow="0"
     inkscape:pageopacity="0"
     inkscape:pagecheckerboard="0"
     inkscape:deskcolor="#505050"
     inkscape:document-units="mm"
     inkscape:zoom="0.13543456"
     inkscape:cx="970.94863"
     inkscape:cy="1196.1496"
     inkscape:window-width="951"
     inkscape:window-height="1026"
     inkscape:window-x="5"
     inkscape:window-y="47"
     inkscape:window-maximized="0"
     inkscape:current-layer="layer2"
     showguides="false" /><defs
     id="defs1"><linearGradient
       id="linearGradient81"
       inkscape:collect="always"><stop
         style="stop-color:#5223d4;stop-opacity:1;"
         offset="0"
         id="stop82" /><stop
         style="stop-color:#50a0a8;stop-opacity:1;"
         offset="1"
         id="stop83" /></linearGradient><linearGradient
       id="linearGradient80"
       inkscape:collect="always"><stop
         style="stop-color:#000000;stop-opacity:0.15000001;"
         offset="0"
         id="stop80" /><stop
         style="stop-color:#000000;stop-opacity:0;"
         offset="1"
         id="stop81" /></linearGradient><linearGradient
       id="linearGradient72"
       inkscape:collect="always"><stop
         style="stop-color:#000000;stop-opacity:0;"
         offset="0"
         id="stop72" /><stop
         style="stop-color:#000000;stop-opacity:0.15000001;"
         offset="1"
         id="stop73" /></linearGradient><linearGradient
       id="linearGradient70"
       inkscape:collect="always"><stop
         style="stop-color:#000000;stop-opacity:0;"
         offset="0"
         id="stop70" /><stop
         style="stop-color:#000000;stop-opacity:0.15000001;"
         offset="1"
         id="stop71" /></linearGradient><linearGradient
       id="linearGradient65"
       inkscape:collect="always"><stop
         style="stop-color:#ffffff;stop-opacity:0.89999998;"
         offset="0"
         id="stop65" /><stop
         style="stop-color:#ffffff;stop-opacity:0.75;"
         offset="1"
         id="stop66" /></linearGradient><linearGradient
       id="linearGradient59"
       inkscape:collect="always"><stop
         style="stop-color:#ffffff;stop-opacity:0.89999998;"
         offset="0"
         id="stop59" /><stop
         style="stop-color:#ffffff;stop-opacity:0.75;"
         offset="1"
         id="stop60" /></linearGradient><linearGradient
       id="linearGradient32"
       inkscape:collect="always"><stop
         style="stop-color:#000000;stop-opacity:0;"
         offset="0"
         id="stop32" /><stop
         style="stop-color:#000000;stop-opacity:0.15000001;"
         offset="1"
         id="stop33" /></linearGradient><linearGradient
       id="linearGradient29"
       inkscape:collect="always"><stop
         style="stop-color:#ffffff;stop-opacity:0.89999998;"
         offset="0"
         id="stop30" /><stop
         style="stop-color:#ffffff;stop-opacity:0.75;"
         offset="1"
         id="stop31" /></linearGradient><linearGradient
       id="linearGradient26"
       inkscape:collect="always"><stop
         style="stop-color:#000000;stop-opacity:0;"
         offset="0"
         id="stop26" /><stop
         style="stop-color:#000000;stop-opacity:0.15000001;"
         offset="1"
         id="stop27" /></linearGradient><linearGradient
       id="linearGradient24"
       inkscape:collect="always"><stop
         style="stop-color:#ffffff;stop-opacity:0.89999998;"
         offset="0"
         id="stop24" /><stop
         style="stop-color:#ffffff;stop-opacity:0.75;"
         offset="1"
         id="stop25" /></linearGradient><linearGradient
       id="linearGradient10"
       inkscape:collect="always"><stop
         style="stop-color:#ffffff;stop-opacity:1;"
         offset="0"
         id="stop10" /><stop
         style="stop-color:#ffffff;stop-opacity:0;"
         offset="1"
         id="stop11" /></linearGradient><linearGradient
       id="linearGradient9"
       inkscape:collect="always"><stop
         style="stop-color:#ffffff;stop-opacity:0.5;"
         offset="0"
         id="stop8" /><stop
         style="stop-color:#ffffff;stop-opacity:0.15000001;"
         offset="1"
         id="stop9" /></linearGradient><linearGradient
       id="linearGradient6"
       inkscape:collect="always"><stop
         style="stop-color:#000000;stop-opacity:1;"
         offset="0"
         id="stop6" /><stop
         style="stop-color:#000000;stop-opacity:0;"
         offset="1"
         id="stop7" /></linearGradient><clipPath
       clipPathUnits="userSpaceOnUse"
       id="clipPath2"><g
         inkscape:label="Clip"
         id="use2"
         style="fill:url(#radialGradient77);fill-opacity:1"><rect
           style="mix-blend-mode:normal;fill:url(#linearGradient76);fill-opacity:1;stroke:url(#linearGradient77);stroke-width:0.795966;stroke-linecap:round;stroke-linejoin:round;stroke-dasharray:none;filter:url(#filter11)"
           id="rect76"
           width="168.33087"
           height="219.09674"
           x="492.6795"
           y="78.989716"
           rx="25.765699"
           ry="25.765699" /></g></clipPath><radialGradient
       inkscape:collect="always"
       xlink:href="#linearGradient6"
       id="radialGradient7"
       cx="492.82642"
       cy="103.76189"
       fx="492.82642"
       fy="103.76189"
       r="84.364427"
       gradientTransform="matrix(1.957547,2.5775533,-1.0359679,0.78679076,-364.41047,-1273.6702)"
       gradientUnits="userSpaceOnUse" /><linearGradient
       inkscape:collect="always"
       xlink:href="#linearGradient9"
       id="linearGradient8"
       x1="493.65591"
       y1="79.22348"
       x2="659.44623"
       y2="296.08957"
       gradientUnits="userSpaceOnUse" /><linearGradient
       inkscape:collect="always"
       xlink:href="#linearGradient10"
       id="linearGradient11"
       x1="493.65591"
       y1="79.22348"
       x2="659.44623"
       y2="296.08957"
       gradientUnits="userSpaceOnUse" /><filter
       inkscape:collect="always"
       style="color-interpolation-filters:sRGB"
       id="filter11"
       x="-0.016173793"
       y="-0.01242624"
       width="1.0323476"
       height="1.0248525"><feGaussianBlur
         inkscape:collect="always"
         stdDeviation="0.96856903"
         id="feGaussianBlur11" /></filter><filter
       inkscape:collect="always"
       style="color-interpolation-filters:sRGB"
       id="filter23"
       x="-0.0095194323"
       y="-0.093523858"
       width="1.0190389"
       height="1.1870477"><feGaussianBlur
         inkscape:collect="always"
         stdDeviation="0.19849932"
         id="feGaussianBlur23" /></filter><filter
       inkscape:collect="always"
       style="color-interpolation-filters:sRGB"
       id="filter24"
       x="-0.0090610286"
       y="-0.13639977"
       width="1.0181221"
       height="1.2727995"><feGaussianBlur
         inkscape:collect="always"
         stdDeviation="0.28948408"
         id="feGaussianBlur24" /></filter><linearGradient
       inkscape:collect="always"
       xlink:href="#linearGradient26"
       id="linearGradient27"
       x1="293.47519"
       y1="129.00584"
       x2="293.47519"
       y2="135.23949"
       gradientUnits="userSpaceOnUse" /><linearGradient
       inkscape:collect="always"
       xlink:href="#linearGradient29"
       id="linearGradient31"
       x1="283.12469"
       y1="165.21616"
       x2="333.17086"
       y2="165.21616"
       gradientUnits="userSpaceOnUse" /><linearGradient
       inkscape:collect="always"
       xlink:href="#linearGradient32"
       id="linearGradient33"
       x1="307.26471"
       y1="162.72336"
       x2="307.26471"
       y2="168.85309"
       gradientUnits="userSpaceOnUse" /><linearGradient
       inkscape:collect="always"
       xlink:href="#linearGradient59"
       id="linearGradient60"
       x1="94.577667"
       y1="47.8344"
       x2="398.50708"
       y2="322.42645"
       gradientUnits="userSpaceOnUse" /><linearGradient
       inkscape:collect="always"
       xlink:href="#linearGradient24"
       id="linearGradient63"
       gradientUnits="userSpaceOnUse"
       x1="256.5566"
       y1="131.75954"
       x2="333.23299"
       y2="131.75954" /><linearGradient
       inkscape:collect="always"
       xlink:href="#linearGradient65"
       id="linearGradient66"
       x1="429.01431"
       y1="65.844734"
       x2="665.80945"
       y2="304.21921"
       gradientUnits="userSpaceOnUse" /><linearGradient
       inkscape:collect="always"
       xlink:href="#linearGradient70"
       id="linearGradient71"
       x1="335.17142"
       y1="272.67752"
       x2="332.50006"
       y2="275.12271"
       gradientUnits="userSpaceOnUse" /><filter
       inkscape:collect="always"
       style="color-interpolation-filters:sRGB"
       id="filter71"
       x="-0.017349591"
       y="-0.017210961"
       width="1.0346992"
       height="1.0344219"><feGaussianBlur
         inkscape:collect="always"
         stdDeviation="0.4511407"
         id="feGaussianBlur71" /></filter><linearGradient
       inkscape:collect="always"
       xlink:href="#linearGradient72"
       id="linearGradient73"
       x1="255.25232"
       y1="153.65674"
       x2="209.33138"
       y2="191.28386"
       gradientUnits="userSpaceOnUse" /><filter
       inkscape:collect="always"
       style="color-interpolation-filters:sRGB"
       id="filter73"
       x="-0.017365821"
       y="-0.017195024"
       width="1.0347316"
       height="1.03439"><feGaussianBlur
         inkscape:collect="always"
         stdDeviation="1.3279922"
         id="feGaussianBlur73" /></filter><linearGradient
       inkscape:collect="always"
       xlink:href="#linearGradient9"
       id="linearGradient76"
       gradientUnits="userSpaceOnUse"
       x1="493.65591"
       y1="79.22348"
       x2="659.44623"
       y2="296.08957" /><linearGradient
       inkscape:collect="always"
       xlink:href="#linearGradient10"
       id="linearGradient77"
       gradientUnits="userSpaceOnUse"
       x1="493.65591"
       y1="79.22348"
       x2="659.44623"
       y2="296.08957" /><radialGradient
       inkscape:collect="always"
       xlink:href="#linearGradient6"
       id="radialGradient77"
       gradientUnits="userSpaceOnUse"
       gradientTransform="matrix(1.957547,2.5775533,-1.0359679,0.78679076,-364.41047,-1273.6702)"
       cx="492.82642"
       cy="103.76189"
       fx="492.82642"
       fy="103.76189"
       r="84.364427" /><radialGradient
       inkscape:collect="always"
       xlink:href="#linearGradient80"
       id="radialGradient81"
       cx="190.6389"
       cy="190.68285"
       fx="190.6389"
       fy="190.68285"
       r="84.642632"
       gradientTransform="matrix(0,3.0538764,-1.2998927,0,518.83739,-503.08921)"
       gradientUnits="userSpaceOnUse" /><filter
       inkscape:collect="always"
       style="color-interpolation-filters:sRGB"
       id="filter81"
       x="-0.019871074"
       y="-0.015286703"
       width="1.0397421"
       height="1.0305734"><feGaussianBlur
         inkscape:collect="always"
         stdDeviation="1.4016167"
         id="feGaussianBlur81" /></filter><radialGradient
       inkscape:collect="always"
       xlink:href="#linearGradient81"
       id="radialGradient83"
       cx="64.741837"
       cy="-5.4703255"
       fx="64.741837"
       fy="-5.4703255"
       r="256"
       gradientUnits="userSpaceOnUse"
       gradientTransform="matrix(0.85065984,1.4058067,-2.1512539,1.3017292,98.145655,35.842508)" /><filter
       inkscape:collect="always"
       style="color-interpolation-filters:sRGB"
       id="filter83"
       x="-0.52589278"
       y="-0.52589278"
       width="2.0517856"
       height="2.0517856"><feGaussianBlur
         inkscape:collect="always"
         stdDeviation="112.19046"
         id="feGaussianBlur83" /></filter></defs><g
     inkscape:groupmode="layer"
     id="layer2"
     inkscape:label="BACK"
     style="display:none"
     transform="translate(11.721528,19.53588)"><rect
       style="mix-blend-mode:normal;fill:url(#radialGradient83);fill-opacity:1;stroke:none;stroke-width:1.58743;stroke-linecap:round;stroke-linejoin:round;stroke-dasharray:none;stroke-opacity:1;filter:url(#filter83)"
       id="rect81"
       width="512"
       height="512"
       x="0"
       y="0"
       transform="matrix(0.40762883,0,0,0.40762883,178.99724,171.18289)" /></g><g
     inkscape:groupmode="layer"
     id="layer3"
     inkscape:label="LINEART"
     transform="matrix(1.6620257,0,0,1.6620257,-151.93984,-49.964839)"
     sodipodi:insensitive="true"><path
       id="path80"
       style="baseline-shift:baseline;display:inline;overflow:visible;vector-effect:none;fill:url(#radialGradient81);stroke:none;stroke-linecap:round;stroke-linejoin:round;filter:url(#filter81);enable-background:accumulate;stop-color:#000000;stop-opacity:1"
       d="m 217.55676,79.615257 c -14.53052,0 -26.24233,11.713674 -26.24233,26.244193 v 167.56431 c 0,14.53051 11.71181,26.24419 26.24233,26.24419 h 116.80061 c 14.53052,0 26.24233,-11.71368 26.24233,-26.24419 V 105.85945 c 0,-14.530519 -11.71181,-26.244193 -26.24233,-26.244193 z"
       inkscape:label="shadow" /><g
       id="g75"
       clip-path="url(#clipPath2)"
       transform="translate(-301.00287,0.83911513)"
       inkscape:label="doc"><g
         inkscape:label="Clip"
         id="g74"
         style="fill:url(#radialGradient7);fill-opacity:1"><rect
           style="mix-blend-mode:normal;fill:url(#linearGradient8);fill-opacity:1;stroke:url(#linearGradient11);stroke-width:0.795966;stroke-linecap:round;stroke-linejoin:round;stroke-dasharray:none;filter:url(#filter11)"
           id="rect73"
           width="168.33087"
           height="219.09674"
           x="492.6795"
           y="78.989716"
           rx="25.765699"
           ry="25.765699" /></g></g><g
       id="g13"
       inkscape:label="syringe"><g
         id="g73"
         inkscape:label="shadow"><path
           id="path70"
           style="baseline-shift:baseline;display:inline;overflow:visible;vector-effect:none;fill:url(#linearGradient71);stroke:none;stroke-linecap:round;stroke-linejoin:round;filter:url(#filter71);enable-background:accumulate;stop-color:#000000;stop-opacity:1"
           d="m 309.36962,242.53653 a 0.15920921,0.15920921 0 0 0 -0.15235,0.10322 c -1.10891,2.89683 -3.16122,4.74609 -5.94923,5.83605 a 0.15920921,0.15920921 0 0 0 -0.0351,0.27735 l 13.30663,9.70892 c 0.0115,0.0116 11.09554,11.21941 22.53144,22.60172 5.72092,5.69411 11.5271,11.43033 16.07417,15.82418 2.27354,2.19692 4.23204,4.05757 5.70889,5.41195 0.73842,0.67719 1.35631,1.22808 1.83414,1.63111 0.47414,0.39991 0.79111,0.64662 1.00366,0.74995 0.73052,0.49187 1.15868,0.71415 1.45513,0.75773 0.0747,0.011 0.14502,0.0118 0.21298,-0.01 0.0679,-0.0216 0.1309,-0.0721 0.16604,-0.13277 0.0703,-0.12138 0.0511,-0.24253 0.0196,-0.36129 -0.063,-0.23752 -0.2145,-0.50422 -0.34979,-0.7229 -0.13529,-0.21868 -0.25775,-0.38461 -0.25775,-0.38461 a 0.15920921,0.15920921 0 0 0 -0.0137,-0.0177 l -45.81253,-47.0839 -9.61316,-14.11876 a 0.15920921,0.15920921 0 0 0 -0.12904,-0.0703 z m -2.30612,3.89992 c -0.48664,0.46404 -1.02065,0.87675 -1.59753,1.24183 0.57689,-0.36508 1.11089,-0.77779 1.59753,-1.24183 z m 9.69586,11.79616 c 0.20502,0.20529 6.5491,6.5578 9.82428,9.85475 2.17547,2.1903 4.71285,4.74881 7.41928,7.47245 11.58143,11.65508 26.25703,26.33487 28.90042,28.13523 -0.003,-0.003 -0.007,-0.006 -0.0103,-0.008 -0.47203,-0.39813 -1.08766,-0.94538 -1.8242,-1.62085 -1.47309,-1.35093 -3.43051,-3.21234 -5.70297,-5.40822 -4.54488,-4.39174 -10.3501,-10.12506 -16.07044,-15.81859 -1.78609,-1.77772 -3.56399,-3.55148 -5.29255,-5.27918 -9.20627,-9.20167 -17.01596,-17.09708 -17.24356,-17.3272 z" /><path
           d="m 129.0456,63.784852 a 2.6266892,2.6266892 0 0 0 -1.8699,0.735647 2.6266892,2.6266892 0 0 0 -0.0693,3.71306 l 39.67333,41.154571 -15.01174,14.65356 a 2.6266892,2.6266892 0 0 0 -0.0451,3.71461 2.6266892,2.6266892 0 0 0 3.71462,0.0448 l 14.98935,-14.63054 15.8531,16.44386 -15.66841,14.12374 a 2.6269518,2.6269518 0 0 0 -0.15577,3.74881 c 0,0 20.48183,21.80062 41.98256,44.47338 10.75037,11.33638 21.75573,22.8903 30.58781,32.0532 8.83208,9.16289 15.24842,15.73817 17.68103,17.82312 4.3988,3.77014 9.13091,5.46018 14.12311,4.10948 3.41254,-0.9233 7.07597,-3.3571 11.10902,-6.46163 1.16307,1.49143 2.87542,3.5215 5.41755,5.62773 1.99963,1.65675 4.32372,3.18418 7.03995,3.79919 2.71623,0.615 5.95188,0.0262 8.42916,-2.27006 2.43051,-2.25289 3.34832,-5.2949 3.01006,-7.95282 -0.33826,-2.65792 -1.63033,-4.94653 -3.06634,-6.89942 -2.52685,-3.43637 -5.35436,-5.64093 -6.08945,-6.20076 1.62076,-2.17913 2.83645,-4.24359 3.54422,-6.19361 1.6272,-4.48314 0.68479,-8.57441 -1.38112,-11.39787 a 2.6269518,2.6269518 0 0 0 -0.15609,-0.19433 C 271.4024,172.59176 211.54379,110.26618 211.54379,110.26618 a 2.6269518,2.6269518 0 0 0 -3.65429,-0.1309 l -17.70621,15.961 -15.99706,-16.59528 17.40803,-16.993575 a 2.6266892,2.6266892 0 0 0 0.0451,-3.714302 2.6266892,2.6266892 0 0 0 -3.71462,-0.04508 L 170.53908,105.71829 130.88876,64.58797 a 2.6266892,2.6266892 0 0 0 -1.84316,-0.803118 z m 80.4635,51.964168 c 2.96485,3.08915 58.79812,61.28315 89.13581,95.41772 1.22142,1.69382 1.7542,3.37029 0.64143,6.43614 -1.12762,3.10677 -4.31406,7.56721 -10.96723,13.30912 -6.75902,5.83324 -11.49586,9.0539 -14.86032,9.96419 -3.36446,0.9103 -5.60157,0.16856 -9.33271,-3.02934 -1.63237,-1.39908 -8.50371,-8.33464 -17.31755,-17.47861 -8.81384,-9.14398 -19.81199,-20.69352 -30.55703,-32.02428 -20.54755,-21.66761 -38.44541,-40.71529 -40.12697,-42.50461 z m 18.14026,27.65051 a 2.6266892,2.6266892 0 0 0 -1.87145,0.73378 l -15.91373,15.33448 a 2.6269518,2.6269518 0 0 0 -0.0815,3.70093 l 61.09757,64.25191 a 2.6266892,2.6266892 0 0 0 3.71337,0.0936 2.6266892,2.6266892 0 0 0 0.0936,-3.71305 l -22.22705,-23.37437 14.32055,-12.04552 a 2.6266892,2.6266892 0 0 0 0.3187,-3.70031 2.6266892,2.6266892 0 0 0 -3.70031,-0.32056 l -14.5665,12.25228 -21.02284,-22.10921 13.73944,-12.42174 a 2.6266892,2.6266892 0 0 0 0.1878,-3.70933 2.6266892,2.6266892 0 0 0 -3.7112,-0.18779 l -13.83737,12.51035 -8.80041,-9.25529 14.03544,-13.52241 a 2.6266892,2.6266892 0 0 0 0.0693,-3.71461 2.6266892,2.6266892 0 0 0 -1.84316,-0.80312 z m 69.63556,86.1929 c 0.41414,0.31979 3.1574,2.46094 5.25214,5.30966 1.12809,1.53414 1.92549,3.17381 2.08786,4.44964 0.16237,1.27583 -0.008,2.17356 -1.37056,3.43665 -1.3159,1.21973 -2.26757,1.32297 -3.69845,0.999 -1.43087,-0.32398 -3.21374,-1.36584 -4.847,-2.71904 -2.11967,-1.75621 -3.62548,-3.54649 -4.64521,-4.84576 0.60509,-0.5109 1.0524,-0.78504 1.68832,-1.33386 2.17354,-1.87583 3.94312,-3.615 5.5329,-5.29629 z"
           style="baseline-shift:baseline;display:inline;overflow:visible;opacity:1;vector-effect:none;fill:url(#linearGradient73);fill-opacity:1;stroke:none;stroke-linecap:round;stroke-linejoin:round;filter:url(#filter73);enable-background:accumulate;stop-color:#000000;stop-opacity:1"
           id="path72" /></g><path
         style="display:inline;fill:url(#linearGradient66);stroke:none;stroke-width:7.03088;stroke-linecap:round;stroke-linejoin:round;stroke-dasharray:none;stroke-opacity:1"
         d="m 665.39707,303.08161 c 0,0 1.89674,2.6048 -1.04125,0.62229 -2.72557,-1.30596 -47.12782,-46.20355 -47.12782,-46.20355 l -13.31375,-9.71541 c 2.82048,-1.10265 4.91571,-2.98974 6.04008,-5.92697 l 9.6219,14.12945 z"
         id="path66"
         sodipodi:nodetypes="ccccccc"
         inkscape:label="needle"
         transform="translate(-300.5873,0.83911513)" /><path
         id="path71"
         style="fill:none;fill-opacity:1;stroke:url(#linearGradient60);stroke-width:6.13448;stroke-linecap:round;stroke-linejoin:round;stroke-dasharray:none;stroke-opacity:1"
         d="m 269.10675,185.59086 -17.58229,16.6055 m -31.50161,-29.30382 16.8497,-17.09389 m -15.62871,-16.11711 -18.07069,19.53588 77.89933,73.01535 m 31.12286,0.187 c 0,0 17.61279,11.56918 8.97909,20.54825 -8.63372,8.97907 -22.62037,-8.97907 -22.62037,-8.97907 M 154.82185,143.10032 197.31239,100.12139 c 0,0 76.29606,70.80706 116.23849,110.86612 4.30848,5.2288 4.39557,13.67511 -11.23313,28.81542 -15.62872,15.14031 -22.46627,18.07069 -32.7226,10.25634 -10.25634,-7.81436 -114.7733,-106.95895 -114.7733,-106.95895 z M 171.91575,75.701534 130.8904,120.63406 M 97.191003,50.79329 174.84613,122.58765"
         transform="matrix(0.82904579,0.04773522,-0.04773522,0.82904579,50.846869,19.66167)"
         inkscape:label="syringe" /></g><g
       id="g12"
       inkscape:label="lines"
       transform="matrix(1.2659696,0,0,1.2659696,-78.433137,-39.540237)"><g
         id="g66"
         inkscape:label="shadow"><path
           d="m 259.10403,129.47198 a 2.5470927,2.5470927 0 0 0 -2.54678,2.54678 2.5470927,2.5470927 0 0 0 2.54678,2.54679 h 71.58226 a 2.5470927,2.5470927 0 0 0 2.54678,-2.54679 2.5470927,2.5470927 0 0 0 -2.54678,-2.54678 z"
           style="baseline-shift:baseline;display:inline;overflow:visible;opacity:1;mix-blend-mode:normal;vector-effect:none;fill:url(#linearGradient27);stroke-linecap:round;stroke-linejoin:round;filter:url(#filter24);enable-background:accumulate;stop-color:#000000;stop-opacity:1"
           id="path22" /><path
           d="m 285.67252,162.98155 a 2.5470927,2.5470927 0 0 0 -2.54678,2.54709 2.5470927,2.5470927 0 0 0 2.54678,2.54678 h 44.95127 a 2.5470927,2.5470927 0 0 0 2.54678,-2.54678 2.5470927,2.5470927 0 0 0 -2.54678,-2.54709 z"
           style="baseline-shift:baseline;display:inline;overflow:visible;opacity:1;mix-blend-mode:normal;vector-effect:none;fill:url(#linearGradient33);stroke-linecap:round;stroke-linejoin:round;filter:url(#filter23);enable-background:accumulate;stop-color:#000000;stop-opacity:1"
           id="path23" /></g><path
         style="fill:none;fill-opacity:1;stroke:url(#linearGradient63);stroke-width:5.09419;stroke-linecap:round;stroke-linejoin:round;stroke-dasharray:none"
         d="M 330.68589,131.75954 H 259.1037"
         id="path19"
         inkscape:label="line1"
         sodipodi:nodetypes="cc" /><path
         style="fill:none;fill-opacity:1;stroke:url(#linearGradient31);stroke-width:5.09419;stroke-linecap:round;stroke-linejoin:round;stroke-dasharray:none"
         d="M 330.62376,165.21616 H 285.67179"
         id="path20"
         inkscape:label="line2"
         sodipodi:nodetypes="cc" /></g></g></svg>
